# xmcd CD database file
#
# Track frame offsets:
#	150
#	12988
#	33981
#	53426
#	70167
#	85202
#	105410
#	118608
#	137584
#	153468
#	176608
#	192084
#
# Disc length: 2810 seconds
#
# Revision: 0
# Processed by: cddbd v1.5.1PL2 Copyright (c) Steve Scherf et al.
# Submitted via: CDex 1.51
#
DISCID=900af80c
DTITLE=Laura Downing - Just let Me Sing and Yodel
DYEAR=1900
DGENRE=Country
TTITLE0=Just Let Me Sing and Yodel
TTITLE1=Homestead of Good Will
TTITLE2=Little Old Red Shawl
TTITLE3=Let's Sleep on it
TTITLE4=I Was Born to Yodel
TTITLE5=Stepping Out
TTITLE6=Mocking Bird Yodel
TTITLE7=Two Les Lonely People
TTITLE8=My Swiss Moonlight Lullaby
TTITLE9=Blacksoil Plains of the Outback
TTITLE10=Where Did the Yodellers Go
TTITLE11=The Least the Last and the Lost
EXTD=
EXTT0=
EXTT1=
EXTT2=
EXTT3=
EXTT4=
EXTT5=
EXTT6=
EXTT7=
EXTT8=
EXTT9=
EXTT10=
EXTT11=
PLAYORDER=
